<?xml version="1.0" encoding="utf-8"?>
<!-- Uploaded to: SVG Repo, www.svgrepo.com, Generator: SVG Repo Mixer Tools -->
<svg width="800px" height="800px" viewBox="0 0 64 64" xmlns="http://www.w3.org/2000/svg" xmlns:xlink="http://www.w3.org/1999/xlink" aria-hidden="true" role="img" class="iconify iconify--emojione" preserveAspectRatio="xMidYMid meet">
<path fill="#e8e8e8" d="M36 21.1L50.9 2h10.3L49.7 21.1z">
</path>
<path d="M48.3 5.3s3 1.8 6.4 1.7c3.4-.2 6.4-5 6.4-5l-5.5 9.1l-7.3-5.8" fill="#b2c1c0">
</path>
<path d="M57.8 37.3L23.2 9.8c16.3-21.5 50.9 6 34.6 27.5" fill="#e8e8e8">
</path>
<path d="M27.7 5.3c-3.1 0-7.6 3.6-7.6 3.6l38.2 30.5s3.5-4.2 2.6-8.8c-.4-1.9-1.6-4.5-3.3-7.1c-1.7-2.5-3.8-5-6.2-7.2c-2.4-2.2-5-4.2-7.8-5.9c-2.7-1.7-5.6-3-8.3-3.9c-2.6-.8-5.2-1.2-7.6-1.2" fill="#b2c1c0">
</path>
<path d="M26.5 6.7c-2.5.1-5.3.8-7 2.9c-1.8 2.2-1.7 5.3-1 8c1.6 5.8 6 10.7 10.4 14.5c4.8 4.1 10.4 7.5 16.5 9.1c4.6 1.2 12.2 1.8 14.2-3.9c1.3-3.7-.4-8-2.3-11.2c-2.1-3.6-5-6.7-8.2-9.4c-3.3-2.8-6.9-5.2-10.8-7c-3.6-1.8-7.7-3.1-11.8-3" fill="#62727a">
</path>
<path d="M27.9 8.8c-2.5.1-5.3.9-6.6 3.2c-1.4 2.4-.9 5.4.1 7.9c2.2 5.6 6.9 10.2 11.7 13.7c5 3.5 11.2 6.7 17.4 6.4c2.5-.1 5.2-1 6.4-3.4c1.3-2.5.7-5.6-.4-8.1c-2.3-5.5-6.9-10-11.6-13.4c-4.9-3.4-10.9-6.5-17-6.3" fill="#b2c1c0">
</path>
<g fill="#3e4347">
<path d="M44.8 33.5c-1.2 0-.9 1.2-.4 1.9c.6.8 1.7 1.5 2.8 1.6c1.2 0 1-1.2.4-1.8c-.6-1-1.7-1.7-2.8-1.7">
</path>
<path d="M36.4 23.5c-1.4 0-1 1.4-.4 2.2c.7.9 1.9 1.7 3.1 1.8c1.4 0 1-1.4.4-2.1c-.7-1-2-1.9-3.1-1.9">
</path>
<path d="M29.5 11.1c-1.5 0-1 1.7-.4 2.5c.8 1 2.1 2 3.4 1.9c1.5 0 1.1-1.6.4-2.5c-.7-.9-2.1-1.9-3.4-1.9">
</path>
<path d="M25.6 18.9c-1.2 0-.8 1.3-.3 2c.6.8 1.7 1.6 2.8 1.6c1.2 0 .8-1.3.3-2c-.7-.8-1.7-1.6-2.8-1.6">
</path>
<path d="M33.2 29.5c-.9 0-.6.9-.2 1.4c.5.6 1.3 1.2 2.1 1.2c1 0 .6-1.1.1-1.5c-.5-.6-1.2-1.1-2-1.1">
</path>
<path d="M41.1 17.3c-1.7 0-1.3 1.7-.5 2.7c.9 1.1 2.4 2.1 3.8 2.1c1.7 0 1.3-1.7.6-2.7c-1-1.1-2.5-2.1-3.9-2.1">
</path>
<path d="M49.9 27.9c-1.5 0-1.2 1.5-.5 2.4c.8 1 2.1 1.9 3.4 1.9c1.5 0 1.2-1.5.5-2.3c-.8-1.1-2.1-2-3.4-2">
</path>
</g>
<g fill="#8ad8ff">
<path d="M30 11.5L2 28.8v1l28.7-17.6z">
</path>
<path d="M26.4 19.1L2 39.7v1l24.9-20.9z">
</path>
<path d="M27.2 19.9L2 44.3v1l25.7-24.8z">
</path>
<path d="M28 20.9L2 48.1v1l26.5-27.8z">
</path>
<path d="M31.3 12.6L2 32.4v1l29.9-20.1z">
</path>
<path d="M32.3 13.6L2 36v1.2l30.9-22.8z">
</path>
<path d="M41.2 17.9L2 51.2v1.4l40-34.1z">
</path>
<path d="M36.5 23.6L2 56.1v1.4l35.2-33.2z">
</path>
<path d="M42.6 18.9L7.8 62h1.3l34.3-42.4z">
</path>
<path d="M37.3 24.4L2 62h1.2l34.9-37z">
</path>
<path d="M38.7 25.7L13 62h1.3l25.2-35.6z">
</path>
<path d="M44 19.9L17.8 62h1.1l25.9-41.4z">
</path>
<path d="M49.9 28.3L30.1 62h1.1l19.6-33.2z">
</path>
<path d="M44.7 33.7L21.8 62h1.1l22.7-27.8z">
</path>
<path d="M45.8 34.4L26.1 62h1.1l19.5-27.1z">
</path>
<path d="M47 35.2L34.1 62h1.1l12.6-26.3z">
</path>
<path d="M51.3 29.3L37.4 62h1l13.8-32.3z">
</path>
<path d="M52.5 30.2L40.9 62h1l11.6-31.3z">
</path>
</g>
</svg>